<svg width="1544" height="474" viewBox="0 0 1544 474" fill="none" xmlns="http://www.w3.org/2000/svg">
<path d="M306.133 143.103V208.057C306.133 221.899 305.707 229.779 304.429 240.214H348.714C347.436 229.779 347.01 222.751 347.01 208.057V143.103H353.61C365.533 143.103 372.559 143.529 381.501 144.593V108.815C373.623 109.667 362.126 110.306 353.185 110.306H347.01V104.982C347.01 93.908 351.055 89.6487 361.488 89.6487C369.578 89.6487 375.965 91.3524 382.565 94.9728L389.165 63.6671C377.456 60.4726 368.727 59.1948 356.804 59.1948C322.101 59.1948 306.133 72.1856 306.133 100.297V110.306H300.384C292.294 110.306 282.5 109.667 276.539 108.815V144.593C283.778 143.529 290.378 143.103 300.384 143.103H306.133Z" fill="#104373"/>
<path d="M418.747 110.306H411.083C403.631 110.306 398.309 109.88 392.134 109.028V144.593C398.309 143.742 403.844 143.316 410.657 143.316H418.747V208.483C418.747 222.964 421.728 230.205 429.818 236.381C436.631 241.492 446.638 243.835 461.115 243.835C472.612 243.835 480.915 242.557 490.496 239.575L487.302 207.205C481.98 209.973 477.935 211.038 472.399 211.038C468.354 211.038 464.947 210.186 462.606 208.696C459.838 206.779 458.773 203.797 458.773 197.834V143.316H467.715C475.38 143.316 480.915 143.742 487.302 144.593V109.241C480.702 110.093 475.806 110.306 466.438 110.306H458.773V105.834C458.773 95.6117 459.412 85.3894 460.477 76.6579H417.044C418.322 86.6672 418.747 95.1858 418.747 105.834V110.306Z" fill="#104373"/>
<path d="M633.251 187.186C633.039 185.057 633.039 183.779 633.039 182.927C632.4 170.788 631.548 161.844 629.845 155.029C622.393 123.297 599.187 105.195 565.974 105.195C525.309 105.195 498.27 133.093 498.27 175.26C498.27 196.344 505.083 214.446 517.645 227.224C529.78 239.362 546.174 245.325 567.038 245.325C588.116 245.325 605.148 239.15 617.284 227.224C623.245 221.261 626.439 216.362 631.335 205.288L594.29 194.853C592.587 200.39 591.096 202.733 587.903 205.714C582.367 210.825 574.916 213.594 566.4 213.594C549.58 213.594 539.574 204.436 537.445 187.186H633.251ZM538.083 157.797C541.703 143.742 550.858 136.927 565.974 136.927C580.664 136.927 589.819 144.168 592.8 157.797H538.083Z" fill="#104373"/>
<path d="M756.411 110.306C746.405 108.177 742.147 107.751 735.334 107.751C715.96 107.751 703.185 113.501 692.753 127.13V110.306H650.385C651.663 119.464 652.088 126.917 652.088 142.464V208.057C652.088 221.899 651.663 229.566 650.385 240.214H694.456C693.179 229.992 692.753 221.899 692.753 208.27V175.047C693.605 165.677 695.095 161.205 699.14 156.094C705.314 148.427 713.618 144.593 724.476 144.593C731.076 144.593 736.398 145.658 746.192 148.64L756.411 110.306Z" fill="#104373"/>
<path d="M956.461 240.214C957.526 233.399 960.294 224.029 965.616 208.909L986.268 150.556C989.036 142.89 991.165 135.223 995.849 118.612C995.636 121.806 995.636 121.806 994.997 133.093C994.571 139.695 993.933 155.668 993.933 160.779V207.205C993.933 222.325 993.507 230.418 992.229 240.214H1034.17C1032.89 231.696 1032.47 223.39 1032.47 207.205V96.2506C1032.47 81.982 1032.89 73.2505 1034.17 63.0282H977.752C976.474 71.9727 974.771 78.7875 969.874 93.0561L938.152 184.844L906.216 93.0561C901.319 79.0005 899.616 72.1856 898.126 63.0282H841.919C842.984 72.1856 843.622 83.4727 843.622 96.2506V207.205C843.622 221.686 843.196 230.631 841.919 240.214H883.861C882.584 231.27 882.158 221.899 882.158 207.205V160.992C882.158 149.705 881.306 132.242 880.029 118.825C881.093 121.806 881.093 121.806 883.435 129.473C884.074 131.177 890.461 150.982 890.674 152.047L910.261 208.696C916.01 224.881 918.352 232.761 919.416 240.214H956.461Z" fill="#104373"/>
<path d="M1188.38 187.186C1188.17 185.057 1188.17 183.779 1188.17 182.927C1187.53 170.788 1186.68 161.844 1184.98 155.029C1177.52 123.297 1154.32 105.195 1121.1 105.195C1080.44 105.195 1053.4 133.093 1053.4 175.26C1053.4 196.344 1060.21 214.446 1072.78 227.224C1084.91 239.362 1101.3 245.325 1122.17 245.325C1143.25 245.325 1160.28 239.15 1172.41 227.224C1178.38 221.261 1181.57 216.362 1186.47 205.288L1149.42 194.853C1147.72 200.39 1146.23 202.733 1143.03 205.714C1137.5 210.825 1130.05 213.594 1121.53 213.594C1104.71 213.594 1094.7 204.436 1092.58 187.186H1188.38ZM1093.21 157.797C1096.83 143.742 1105.99 136.927 1121.1 136.927C1135.79 136.927 1144.95 144.168 1147.93 157.797H1093.21Z" fill="#104373"/>
<path d="M1270.03 245.113C1312.39 245.113 1340.5 217.001 1340.5 174.621C1340.5 132.454 1313.25 105.408 1270.24 105.408C1227.23 105.408 1199.98 132.454 1199.98 175.047C1199.98 217.853 1227.23 245.113 1270.03 245.113ZM1270.45 137.353C1288.55 137.353 1299.41 151.408 1299.41 175.26C1299.41 198.899 1288.76 212.742 1270.24 212.742C1251.72 212.742 1240.65 198.473 1240.65 174.834C1240.65 151.408 1251.72 137.353 1270.45 137.353Z" fill="#104373"/>
<path d="M1504.19 240.214C1505.46 232.974 1506.74 227.649 1510.57 215.298L1534.42 137.992C1537.61 127.982 1540.81 118.399 1544 110.306H1498.23C1497.8 117.121 1496.31 126.066 1493.75 137.14L1484.81 174.834C1483.54 180.584 1483.54 180.584 1482.9 183.779C1482.04 181.223 1480.77 176.538 1480.34 175.047L1467.99 134.797C1464.8 124.788 1462.24 114.566 1461.61 110.306H1430.52C1429.67 114.778 1429.67 114.778 1423.92 134.797L1412 173.557C1411.57 175.473 1411.57 175.473 1409.02 183.779C1408.81 182.075 1407.95 178.668 1406.89 173.557L1397.73 135.436C1395.39 125.427 1394.12 117.76 1393.69 110.306H1347.92C1351.96 121.167 1355.15 130.538 1357.5 137.992L1381.34 215.298C1384.75 226.798 1386.24 232.548 1387.73 240.214H1423.92C1424.77 235.103 1427.54 224.668 1430.52 215.298L1443.51 172.705C1444.57 169.723 1444.57 169.297 1446.06 164.399C1446.49 166.316 1447.34 169.084 1448.41 172.705L1461.39 215.298C1465.23 227.649 1466.93 234.038 1467.99 240.214H1504.19Z" fill="#104373"/>
<path d="M1093.74 280.779C1093.74 332.024 1114.28 381.171 1150.85 417.407C1187.42 453.643 1237.02 474 1288.73 474C1340.45 474 1390.05 453.643 1426.61 417.407C1463.18 381.171 1483.73 332.024 1483.73 280.779L1410 280.779C1410 312.648 1397.22 343.213 1374.48 365.748C1351.74 388.283 1320.89 400.943 1288.73 400.943C1256.57 400.943 1225.73 388.283 1202.98 365.748C1180.24 343.213 1167.47 312.648 1167.47 280.779L1093.74 280.779Z" fill="#104373"/>
<path fill-rule="evenodd" clip-rule="evenodd" d="M237.262 188.811L158.641 49.9412C150.563 35.6732 130.069 35.5003 121.751 49.6298L40.7968 187.153C32.4793 201.283 42.5765 219.118 58.9718 219.256L218.548 220.603C234.943 220.741 245.34 203.079 237.262 188.811ZM191.076 31.5778C168.862 -7.65891 112.503 -8.13468 89.6303 30.7215L8.67589 168.245C-14.1972 207.101 13.5703 256.147 58.6573 256.528L218.233 257.875C263.32 258.255 291.911 209.685 269.697 170.448L191.076 31.5778Z" fill="#104373"/>
</svg>
