<svg width="488" height="173" viewBox="0 0 488 173" fill="none" xmlns="http://www.w3.org/2000/svg">
<path d="M94.3771 70.9022V90.9269C94.3771 95.1945 94.2458 97.6237 93.852 100.841H107.504C107.111 97.6237 106.979 95.4571 106.979 90.9269V70.9022H109.014C112.69 70.9022 114.856 71.0335 117.612 71.3618V60.3318C115.184 60.5944 111.639 60.7913 108.883 60.7913H106.979V59.15C106.979 55.7359 108.226 54.4228 111.443 54.4228C113.937 54.4228 115.906 54.9481 117.941 56.0642L119.975 46.4129C116.365 45.4281 113.674 45.0342 109.999 45.0342C99.2998 45.0342 94.3771 49.0391 94.3771 57.7056V60.7913H92.6049C90.1107 60.7913 87.0915 60.5944 85.2537 60.3318V71.3618C87.4853 71.0335 89.52 70.9022 92.6049 70.9022H94.3771Z" fill="#FDFDFD"/>
<path d="M129.095 60.7913H126.732C124.435 60.7913 122.794 60.66 120.891 60.3974V71.3618C122.794 71.0991 124.501 70.9678 126.601 70.9678H129.095V91.0582C129.095 95.5227 130.014 97.755 132.508 99.659C134.609 101.235 137.693 101.957 142.157 101.957C145.701 101.957 148.261 101.563 151.215 100.644L150.23 90.6643C148.589 91.5178 147.342 91.8461 145.635 91.8461C144.388 91.8461 143.338 91.5835 142.616 91.1239C141.763 90.533 141.435 89.6138 141.435 87.7755V70.9678H144.191C146.554 70.9678 148.261 71.0991 150.23 71.3618V60.4631C148.195 60.7257 146.686 60.7913 143.798 60.7913H141.435V59.4126C141.435 56.2612 141.632 53.1097 141.96 50.4179H128.57C128.964 53.5037 129.095 56.1298 129.095 59.4126V60.7913Z" fill="#FDFDFD"/>
<path d="M195.225 84.4927C195.159 83.8362 195.159 83.4423 195.159 83.1796C194.962 79.4373 194.7 76.6798 194.175 74.5789C191.877 64.7963 184.723 59.2156 174.484 59.2156C161.947 59.2156 153.611 67.8164 153.611 80.8161C153.611 87.3159 155.712 92.8965 159.584 96.8358C163.326 100.578 168.379 102.417 174.812 102.417C181.31 102.417 186.561 100.513 190.302 96.8358C192.14 94.9975 193.124 93.4874 194.634 90.0734L183.213 86.8563C182.688 88.5633 182.229 89.2855 181.244 90.2047C179.538 91.7804 177.24 92.6339 174.615 92.6339C169.43 92.6339 166.345 89.8108 165.688 84.4927H195.225ZM165.885 75.4324C167.001 71.0991 169.823 68.9982 174.484 68.9982C179.013 68.9982 181.835 71.2305 182.754 75.4324H165.885Z" fill="#FDFDFD"/>
<path d="M233.194 60.7913C230.109 60.1348 228.796 60.0035 226.696 60.0035C220.723 60.0035 216.785 61.7762 213.569 65.9781V60.7913H200.507C200.901 63.6145 201.032 65.9124 201.032 70.7052V90.9269C201.032 95.1945 200.901 97.558 200.507 100.841H214.094C213.7 97.6894 213.569 95.1945 213.569 90.9926V80.7504C213.831 77.8616 214.291 76.4828 215.538 74.9071C217.441 72.5436 220.001 71.3618 223.348 71.3618C225.383 71.3618 227.024 71.69 230.043 72.6092L233.194 60.7913Z" fill="#FDFDFD"/>
<path d="M294.867 100.841C295.196 98.7398 296.049 95.851 297.69 91.1895L304.056 73.2001C304.91 70.8365 305.566 68.473 307.01 63.3519C306.944 64.3367 306.944 64.3367 306.748 67.8164C306.616 69.8517 306.419 74.7758 306.419 76.3515V90.6643C306.419 95.3258 306.288 97.8207 305.894 100.841H318.825C318.431 98.2146 318.299 95.6541 318.299 90.6643V56.4581C318.299 52.0592 318.431 49.3674 318.825 46.216H301.431C301.037 48.9735 300.512 51.0744 299.002 55.4733L289.223 83.7705L279.377 55.4733C277.868 51.1401 277.342 49.0391 276.883 46.216H259.555C259.883 49.0391 260.08 52.5188 260.08 56.4581V90.6643C260.08 95.1288 259.949 97.8863 259.555 100.841H272.485C272.092 98.0833 271.96 95.1945 271.96 90.6643V76.4172C271.96 72.9375 271.698 67.5538 271.304 63.4175C271.632 64.3367 271.632 64.3367 272.354 66.7003C272.551 67.2255 274.52 73.3314 274.586 73.6597L280.624 91.1239C282.396 96.1136 283.118 98.5429 283.447 100.841H294.867Z" fill="#FDFDFD"/>
<path d="M366.366 84.4927C366.301 83.8362 366.301 83.4423 366.301 83.1796C366.104 79.4373 365.841 76.6798 365.316 74.5789C363.019 64.7963 355.865 59.2156 345.625 59.2156C333.089 59.2156 324.753 67.8164 324.753 80.8161C324.753 87.3159 326.853 92.8965 330.726 96.8358C334.467 100.578 339.521 102.417 345.953 102.417C352.451 102.417 357.702 100.513 361.444 96.8358C363.281 94.9975 364.266 93.4874 365.776 90.0734L354.355 86.8563C353.83 88.5633 353.37 89.2855 352.386 90.2047C350.679 91.7804 348.382 92.6339 345.757 92.6339C340.571 92.6339 337.486 89.8108 336.83 84.4927H366.366ZM337.027 75.4324C338.143 71.0991 340.965 68.9982 345.625 68.9982C350.154 68.9982 352.976 71.2305 353.895 75.4324H337.027Z" fill="#FDFDFD"/>
<path d="M391.536 102.351C404.598 102.351 413.262 93.6844 413.262 80.6191C413.262 67.6194 404.86 59.2813 391.602 59.2813C378.343 59.2813 369.942 67.6194 369.942 80.7504C369.942 93.947 378.343 102.351 391.536 102.351ZM391.668 69.1295C397.247 69.1295 400.594 73.4627 400.594 80.8161C400.594 88.1038 397.312 92.3713 391.602 92.3713C385.892 92.3713 382.478 87.9724 382.478 80.6848C382.478 73.4627 385.892 69.1295 391.668 69.1295Z" fill="#FDFDFD"/>
<path d="M463.726 100.841C464.12 98.6085 464.514 96.9672 465.695 93.1592L473.046 69.3265C474.031 66.2407 475.015 63.2862 476 60.7913H461.888C461.757 62.8923 461.297 65.6498 460.51 69.0638L457.753 80.6848C457.359 82.4574 457.359 82.4574 457.162 83.4423C456.9 82.6544 456.506 81.21 456.375 80.7504L452.568 68.3416C451.583 65.2559 450.796 62.1044 450.599 60.7913H441.016C440.753 62.1701 440.753 62.1701 438.981 68.3416L435.305 80.2908C435.174 80.8817 435.174 80.8817 434.387 83.4423C434.321 82.917 434.058 81.8665 433.73 80.2908L430.908 68.5386C430.186 65.4528 429.792 63.0893 429.661 60.7913H415.549C416.796 64.1397 417.781 67.0285 418.503 69.3265L425.854 93.1592C426.904 96.7045 427.363 98.4772 427.823 100.841H438.981C439.244 99.2651 440.097 96.048 441.016 93.1592L445.02 80.0282C445.348 79.109 445.348 78.9777 445.807 77.4677C445.939 78.0586 446.201 78.9121 446.529 80.0282L450.533 93.1592C451.715 96.9672 452.24 98.9368 452.568 100.841H463.726Z" fill="#FDFDFD"/>
<path d="M337.189 113.347C337.189 129.145 343.523 144.297 354.797 155.468C366.07 166.639 381.361 172.915 397.304 172.915C413.248 172.915 428.538 166.639 439.812 155.468C451.085 144.297 457.419 129.145 457.419 113.347L434.69 113.347C434.69 123.172 430.751 132.595 423.74 139.542C416.728 146.489 407.219 150.392 397.304 150.392C387.389 150.392 377.88 146.489 370.869 139.542C363.858 132.594 359.919 123.172 359.919 113.347L337.189 113.347Z" fill="#FDFDFD"/>
<path fill-rule="evenodd" clip-rule="evenodd" d="M73.1455 84.9941L48.9072 42.1817C46.4169 37.7831 40.0988 37.7298 37.5346 42.0857L12.5771 84.4829C10.0129 88.8389 13.1258 94.3372 18.1803 94.3799L67.3761 94.7951C72.4305 94.8378 75.6358 89.3928 73.1455 84.9941ZM58.9068 36.5205C52.0584 24.4242 34.6836 24.2775 27.632 36.2565L2.67455 78.6537C-4.377 90.6327 4.18344 105.753 18.0833 105.87L67.2791 106.286C81.179 106.403 89.9934 91.4292 83.145 79.3329L58.9068 36.5205Z" fill="#FDFDFD"/>
<path d="M355.48 36.2C355.76 38.04 355.96 38.96 356.36 39.92C357.2 42.2 358.68 43.92 360.68 45.04C362.84 46.28 366.2 47 369.6 47C374.28 47 377.8 45.84 380.12 43.6C381.96 41.8 382.92 39.24 382.92 36.24C382.92 32.56 381.48 29.88 378.6 28.08C377.08 27.12 375.16 26.44 372.12 25.8C367.4 24.84 367.4 24.84 366.6 24.48C365.32 23.88 364.72 23.04 364.72 21.92C364.72 20.08 366.52 18.76 368.96 18.76C372 18.76 373.44 19.84 373.92 22.44L382.4 21.52C381.88 19.24 381.4 18.04 380.4 16.72C378.24 13.72 374.36 12.16 369.28 12.16C361.4 12.16 356.44 16.04 356.44 22.2C356.44 25.44 357.8 28.12 360.32 29.88C361.8 30.92 363.08 31.4 366.76 32.2C370.92 33.16 371.92 33.44 372.76 33.84C373.8 34.32 374.44 35.4 374.44 36.64C374.44 38.88 372.6 40.24 369.52 40.24C367.48 40.24 365.8 39.56 364.84 38.36C364.24 37.56 363.96 36.84 363.8 35.4L355.48 36.2ZM410.987 36.28C410.947 35.88 410.947 35.64 410.947 35.48C410.827 33.2 410.667 31.52 410.347 30.24C408.947 24.28 404.587 20.88 398.347 20.88C390.707 20.88 385.627 26.12 385.627 34.04C385.627 38 386.907 41.4 389.267 43.8C391.547 46.08 394.627 47.2 398.547 47.2C402.507 47.2 405.707 46.04 407.987 43.8C409.107 42.68 409.707 41.76 410.627 39.68L403.667 37.72C403.347 38.76 403.067 39.2 402.467 39.76C401.427 40.72 400.027 41.24 398.427 41.24C395.267 41.24 393.387 39.52 392.987 36.28H410.987ZM393.107 30.76C393.787 28.12 395.507 26.84 398.347 26.84C401.107 26.84 402.827 28.2 403.387 30.76H393.107ZM414.206 12.96C414.446 14.48 414.526 16.16 414.526 19V40.2C414.526 43.08 414.446 44.44 414.206 46.24H422.566C422.326 44.12 422.246 42.6 422.246 40.2V19C422.246 16.28 422.326 14.64 422.566 12.96H414.206ZM426.784 12.96C427.024 14.48 427.104 16.16 427.104 19V40.2C427.104 43.08 427.024 44.44 426.784 46.24H435.144C434.904 44.12 434.824 42.6 434.824 40.2V19C434.824 16.28 434.904 14.64 435.144 12.96H426.784ZM463.682 36.28C463.642 35.88 463.642 35.64 463.642 35.48C463.522 33.2 463.362 31.52 463.042 30.24C461.642 24.28 457.282 20.88 451.042 20.88C443.402 20.88 438.322 26.12 438.322 34.04C438.322 38 439.602 41.4 441.962 43.8C444.242 46.08 447.322 47.2 451.242 47.2C455.202 47.2 458.402 46.04 460.682 43.8C461.802 42.68 462.402 41.76 463.322 39.68L456.362 37.72C456.042 38.76 455.762 39.2 455.162 39.76C454.122 40.72 452.722 41.24 451.122 41.24C447.962 41.24 446.082 39.52 445.682 36.28H463.682ZM445.802 30.76C446.482 28.12 448.202 26.84 451.042 26.84C453.802 26.84 455.522 28.2 456.082 30.76H445.802ZM486.821 21.84C484.941 21.44 484.141 21.36 482.861 21.36C479.221 21.36 476.821 22.44 474.861 25V21.84H466.901C467.141 23.56 467.221 24.96 467.221 27.88V40.2C467.221 42.8 467.141 44.24 466.901 46.24H475.181C474.941 44.32 474.861 42.8 474.861 40.24V34C475.021 32.24 475.301 31.4 476.061 30.44C477.221 29 478.781 28.28 480.821 28.28C482.061 28.28 483.061 28.48 484.901 29.04L486.821 21.84Z" fill="white"/>
</svg>
