<svg width="476" height="146" viewBox="0 0 476 146" fill="none" xmlns="http://www.w3.org/2000/svg">
<path d="M94.3771 43.9027V63.9274C94.3771 68.195 94.2458 70.6242 93.852 73.8413H107.504C107.111 70.6242 106.979 68.4576 106.979 63.9274V43.9027H109.014C112.69 43.9027 114.856 44.034 117.612 44.3623V33.3322C115.184 33.5949 111.639 33.7918 108.883 33.7918H106.979V32.1505C106.979 28.7364 108.226 27.4233 111.443 27.4233C113.937 27.4233 115.906 27.9485 117.941 29.0647L119.975 19.4134C116.365 18.4286 113.674 18.0347 109.999 18.0347C99.2998 18.0347 94.3771 22.0396 94.3771 30.7061V33.7918H92.6049C90.1107 33.7918 87.0915 33.5949 85.2537 33.3322V44.3623C87.4853 44.034 89.52 43.9027 92.6049 43.9027H94.3771Z" fill="#FDFDFD"/>
<path d="M129.095 33.7918H126.732C124.435 33.7918 122.794 33.6605 120.891 33.3979V44.3623C122.794 44.0996 124.501 43.9683 126.601 43.9683H129.095V64.0587C129.095 68.5232 130.014 70.7555 132.508 72.6595C134.609 74.2352 137.693 74.9574 142.157 74.9574C145.701 74.9574 148.261 74.5635 151.215 73.6443L150.23 63.6648C148.589 64.5183 147.342 64.8466 145.635 64.8466C144.388 64.8466 143.338 64.5839 142.616 64.1244C141.763 63.5335 141.435 62.6143 141.435 60.776V43.9683H144.191C146.554 43.9683 148.261 44.0996 150.23 44.3623V33.4636C148.195 33.7262 146.686 33.7918 143.798 33.7918H141.435V32.4131C141.435 29.2616 141.632 26.1102 141.96 23.4184H128.57C128.964 26.5041 129.095 29.1303 129.095 32.4131V33.7918Z" fill="#FDFDFD"/>
<path d="M195.225 57.4932C195.159 56.8367 195.159 56.4427 195.159 56.1801C194.962 52.4378 194.7 49.6803 194.175 47.5793C191.877 37.7968 184.723 32.2161 174.484 32.2161C161.947 32.2161 153.611 40.8169 153.611 53.8166C153.611 60.3164 155.712 65.897 159.584 69.8363C163.326 73.5787 168.379 75.417 174.812 75.417C181.31 75.417 186.561 73.513 190.302 69.8363C192.14 67.998 193.124 66.4879 194.634 63.0739L183.213 59.8568C182.688 61.5638 182.229 62.286 181.244 63.2052C179.538 64.7809 177.24 65.6344 174.615 65.6344C169.43 65.6344 166.345 62.8113 165.688 57.4932H195.225ZM165.885 48.4329C167.001 44.0996 169.823 41.9987 174.484 41.9987C179.013 41.9987 181.835 44.2309 182.754 48.4329H165.885Z" fill="#FDFDFD"/>
<path d="M233.194 33.7918C230.109 33.1353 228.796 33.004 226.696 33.004C220.723 33.004 216.785 34.7767 213.569 38.9786V33.7918H200.507C200.901 36.615 201.032 38.9129 201.032 43.7057V63.9274C201.032 68.195 200.901 70.5585 200.507 73.8413H214.094C213.7 70.6898 213.569 68.195 213.569 63.9931V53.7509C213.831 50.8621 214.291 49.4833 215.538 47.9076C217.441 45.544 220.001 44.3623 223.348 44.3623C225.383 44.3623 227.024 44.6905 230.043 45.6097L233.194 33.7918Z" fill="#FDFDFD"/>
<path d="M294.867 73.8413C295.196 71.7403 296.049 68.8515 297.69 64.19L304.056 46.2006C304.91 43.837 305.566 41.4734 307.01 36.3524C306.944 37.3372 306.944 37.3372 306.748 40.8169C306.616 42.8522 306.419 47.7763 306.419 49.352V63.6648C306.419 68.3263 306.288 70.8212 305.894 73.8413H318.825C318.431 71.2151 318.299 68.6545 318.299 63.6648V29.4586C318.299 25.0597 318.431 22.3679 318.825 19.2165H301.431C301.037 21.974 300.512 24.0749 299.002 28.4738L289.223 56.771L279.377 28.4738C277.868 24.1406 277.342 22.0396 276.883 19.2165H259.555C259.883 22.0396 260.08 25.5193 260.08 29.4586V63.6648C260.08 68.1293 259.949 70.8868 259.555 73.8413H272.485C272.092 71.0838 271.96 68.195 271.96 63.6648V49.4177C271.96 45.938 271.698 40.5543 271.304 36.418C271.632 37.3372 271.632 37.3372 272.354 39.7008C272.551 40.226 274.52 46.3319 274.586 46.6602L280.624 64.1244C282.396 69.1141 283.118 71.5434 283.447 73.8413H294.867Z" fill="#FDFDFD"/>
<path d="M366.366 57.4932C366.301 56.8367 366.301 56.4427 366.301 56.1801C366.104 52.4378 365.841 49.6803 365.316 47.5793C363.019 37.7968 355.865 32.2161 345.625 32.2161C333.089 32.2161 324.753 40.8169 324.753 53.8166C324.753 60.3164 326.853 65.897 330.726 69.8363C334.467 73.5787 339.521 75.417 345.953 75.417C352.451 75.417 357.702 73.513 361.444 69.8363C363.281 67.998 364.266 66.4879 365.776 63.0739L354.355 59.8568C353.83 61.5638 353.37 62.286 352.386 63.2052C350.679 64.7809 348.382 65.6344 345.757 65.6344C340.571 65.6344 337.486 62.8113 336.83 57.4932H366.366ZM337.027 48.4329C338.143 44.0996 340.965 41.9987 345.625 41.9987C350.154 41.9987 352.976 44.2309 353.895 48.4329H337.027Z" fill="#FDFDFD"/>
<path d="M391.536 75.3513C404.598 75.3513 413.262 66.6849 413.262 53.6196C413.262 40.6199 404.86 32.2818 391.602 32.2818C378.343 32.2818 369.942 40.6199 369.942 53.7509C369.942 66.9475 378.343 75.3513 391.536 75.3513ZM391.668 42.13C397.247 42.13 400.594 46.4632 400.594 53.8166C400.594 61.1042 397.312 65.3718 391.602 65.3718C385.892 65.3718 382.478 60.9729 382.478 53.6852C382.478 46.4632 385.892 42.13 391.668 42.13Z" fill="#FDFDFD"/>
<path d="M463.726 73.8413C464.12 71.609 464.514 69.9676 465.695 66.1597L473.046 42.327C474.031 39.2412 475.015 36.2867 476 33.7918H461.888C461.757 35.8928 461.297 38.6503 460.51 42.0643L457.753 53.6852C457.359 55.4579 457.359 55.4579 457.162 56.4427C456.9 55.6549 456.506 54.2105 456.375 53.7509L452.568 41.3421C451.583 38.2564 450.796 35.1049 450.599 33.7918H441.016C440.753 35.1706 440.753 35.1706 438.981 41.3421L435.305 53.2913C435.174 53.8822 435.174 53.8822 434.387 56.4427C434.321 55.9175 434.058 54.867 433.73 53.2913L430.908 41.5391C430.186 38.4533 429.792 36.0897 429.661 33.7918H415.549C416.796 37.1402 417.781 40.029 418.503 42.327L425.854 66.1597C426.904 69.705 427.363 71.4777 427.823 73.8413H438.981C439.244 72.2656 440.097 69.0485 441.016 66.1597L445.02 53.0287C445.348 52.1095 445.348 51.9782 445.807 50.4682C445.939 51.059 446.201 51.9126 446.529 53.0287L450.533 66.1597C451.715 69.9676 452.24 71.9373 452.568 73.8413H463.726Z" fill="#FDFDFD"/>
<path d="M337.189 86.3467C337.189 102.145 343.523 117.297 354.797 128.468C366.07 139.639 381.361 145.915 397.304 145.915C413.248 145.915 428.538 139.639 439.812 128.468C451.085 117.297 457.419 102.145 457.419 86.3467L434.69 86.3467C434.69 96.1718 430.751 105.595 423.74 112.542C416.728 119.489 407.219 123.392 397.304 123.392C387.389 123.392 377.88 119.489 370.869 112.542C363.858 105.594 359.919 96.1718 359.919 86.3467L337.189 86.3467Z" fill="#FDFDFD"/>
<path fill-rule="evenodd" clip-rule="evenodd" d="M73.1455 57.9941L48.9072 15.1817C46.4169 10.7831 40.0988 10.7298 37.5346 15.0857L12.5771 57.4829C10.0129 61.8389 13.1258 67.3372 18.1803 67.3799L67.3761 67.7951C72.4305 67.8378 75.6358 62.3928 73.1455 57.9941ZM58.9068 9.52049C52.0584 -2.57583 34.6836 -2.7225 27.632 9.25649L2.67455 51.6537C-4.377 63.6327 4.18344 78.7531 18.0833 78.8704L67.2791 79.2856C81.179 79.4029 89.9934 64.4292 83.145 52.3329L58.9068 9.52049Z" fill="#FDFDFD"/>
</svg>
