<svg width="366" height="112" viewBox="0 0 366 112" fill="none" xmlns="http://www.w3.org/2000/svg">
<path d="M72.4414 33.6983V49.0686C72.4414 52.3443 72.3406 54.2089 72.0383 56.6782H82.5175C82.2152 54.2089 82.1144 52.5459 82.1144 49.0686V33.6983H83.6762C86.4975 33.6983 88.1601 33.7991 90.276 34.051V25.5847C88.412 25.7863 85.6914 25.9375 83.5754 25.9375H82.1144V24.6776C82.1144 22.0571 83.0716 21.0492 85.5403 21.0492C87.4547 21.0492 88.9662 21.4524 90.5279 22.3091L92.0897 14.9011C89.3188 14.1451 87.2532 13.8428 84.4319 13.8428C76.2199 13.8428 72.4414 16.9169 72.4414 23.5689V25.9375H71.0811C69.1666 25.9375 66.8491 25.7863 65.4385 25.5847V34.051C67.1514 33.7991 68.7132 33.6983 71.0811 33.6983H72.4414Z" fill="#104373"/>
<path d="M99.0899 25.9375H97.2762C95.5129 25.9375 94.2533 25.8367 92.7923 25.6351V34.051C94.2533 33.8495 95.5632 33.7487 97.1754 33.7487H99.0899V49.1694C99.0899 52.5963 99.7952 54.3097 101.71 55.7711C103.322 56.9806 105.69 57.535 109.116 57.535C111.836 57.535 113.801 57.2326 116.068 56.5271L115.312 48.8671C114.053 49.5222 113.096 49.7742 111.786 49.7742C110.829 49.7742 110.022 49.5726 109.468 49.2198C108.813 48.7663 108.561 48.0608 108.561 46.6497V33.7487H110.677C112.491 33.7487 113.801 33.8495 115.312 34.051V25.6855C113.751 25.8871 112.592 25.9375 110.375 25.9375H108.561V24.8792C108.561 22.4603 108.713 20.0413 108.964 17.9751H98.6868C98.9891 20.3437 99.0899 22.3595 99.0899 24.8792V25.9375Z" fill="#104373"/>
<path d="M149.849 44.13C149.799 43.626 149.799 43.3237 149.799 43.1221C149.647 40.2496 149.446 38.133 149.043 36.5204C147.28 29.0116 141.788 24.728 133.929 24.728C124.306 24.728 117.908 31.3297 117.908 41.3079C117.908 46.2969 119.52 50.5805 122.492 53.6042C125.364 56.4767 129.243 57.8877 134.181 57.8877C139.168 57.8877 143.199 56.4263 146.07 53.6042C147.481 52.1931 148.237 51.034 149.396 48.4135L140.629 45.9442C140.226 47.2544 139.874 47.8088 139.118 48.5143C137.808 49.7238 136.045 50.3789 134.03 50.3789C130.049 50.3789 127.682 48.2119 127.178 44.13H149.849ZM127.329 37.1755C128.185 33.8495 130.352 32.2368 133.929 32.2368C137.405 32.2368 139.571 33.9502 140.277 37.1755H127.329Z" fill="#104373"/>
<path d="M178.993 25.9375C176.625 25.4335 175.617 25.3328 174.005 25.3328C169.421 25.3328 166.398 26.6934 163.929 29.9187V25.9375H153.903C154.206 28.1045 154.306 29.8683 154.306 33.5471V49.0686C154.306 52.3443 154.206 54.1585 153.903 56.6782H164.332C164.03 54.2593 163.929 52.3443 163.929 49.119V41.2575C164.131 39.0401 164.483 37.9818 165.441 36.7723C166.902 34.9581 168.866 34.051 171.436 34.051C172.998 34.051 174.257 34.303 176.575 35.0085L178.993 25.9375Z" fill="#104373"/>
<path d="M226.332 56.6782C226.584 55.0656 227.238 52.8483 228.498 49.2702L233.385 35.4621C234.04 33.6479 234.544 31.8337 235.652 27.9029C235.602 28.6588 235.602 28.6588 235.45 31.3297C235.35 32.892 235.199 36.6716 235.199 37.881V48.8671C235.199 52.4451 235.098 54.3601 234.796 56.6782H244.72C244.418 54.6625 244.317 52.6971 244.317 48.8671V22.6114C244.317 19.235 244.418 17.1688 244.72 14.7499H231.37C231.067 16.8665 230.664 18.4791 229.506 21.8555L221.999 43.5756L214.442 21.8555C213.283 18.5295 212.88 16.9168 212.527 14.7499H199.227C199.479 16.9168 199.63 19.5878 199.63 22.6114V48.8671C199.63 52.2939 199.529 54.4105 199.227 56.6782H209.152C208.85 54.5617 208.749 52.3443 208.749 48.8671V37.9314C208.749 35.2605 208.547 31.1281 208.245 27.9533C208.497 28.6588 208.497 28.6588 209.051 30.473C209.202 30.8762 210.714 35.5629 210.764 35.8149L215.399 49.2198C216.759 53.0498 217.314 54.9144 217.565 56.6782H226.332Z" fill="#104373"/>
<path d="M281.212 44.13C281.162 43.626 281.162 43.3237 281.162 43.1221C281.011 40.2496 280.809 38.133 280.406 36.5204C278.643 29.0116 273.151 24.728 265.292 24.728C255.669 24.728 249.271 31.3297 249.271 41.3079C249.271 46.2969 250.883 50.5805 253.855 53.6042C256.727 56.4767 260.606 57.8877 265.544 57.8877C270.531 57.8877 274.562 56.4263 277.434 53.6042C278.844 52.1931 279.6 51.034 280.759 48.4135L271.992 45.9442C271.589 47.2544 271.237 47.8088 270.481 48.5143C269.171 49.7238 267.408 50.3789 265.393 50.3789C261.413 50.3789 259.045 48.2119 258.541 44.13H281.212ZM258.692 37.1755C259.548 33.8495 261.715 32.2368 265.292 32.2368C268.768 32.2368 270.934 33.9502 271.64 37.1755H258.692Z" fill="#104373"/>
<path d="M300.532 57.8373C310.558 57.8373 317.208 51.1852 317.208 41.1567C317.208 31.1785 310.759 24.7784 300.582 24.7784C290.405 24.7784 283.957 31.1785 283.957 41.2575C283.957 51.3868 290.405 57.8373 300.532 57.8373ZM300.633 32.3376C304.915 32.3376 307.484 35.6637 307.484 41.3079C307.484 46.9017 304.965 50.1773 300.582 50.1773C296.199 50.1773 293.579 46.8009 293.579 41.2071C293.579 35.6637 296.199 32.3376 300.633 32.3376Z" fill="#104373"/>
<path d="M355.942 56.6782C356.245 54.9648 356.547 53.705 357.454 50.7821L363.096 32.4888C363.852 30.1203 364.608 27.8525 365.364 25.9375H354.532C354.431 27.5501 354.078 29.6667 353.474 32.2872L351.358 41.2071C351.056 42.5677 351.056 42.5677 350.904 43.3237C350.703 42.7189 350.401 41.6102 350.3 41.2575L347.378 31.7329C346.622 29.3643 346.017 26.9454 345.866 25.9375H338.511C338.309 26.9958 338.309 26.9958 336.949 31.7329L334.128 40.9047C334.027 41.3583 334.027 41.3583 333.422 43.3237C333.372 42.9205 333.17 42.1142 332.919 40.9047L330.752 31.8841C330.198 29.5155 329.896 27.7013 329.795 25.9375H318.963C319.92 28.5076 320.676 30.725 321.23 32.4888L326.873 50.7821C327.679 53.5034 328.032 54.864 328.384 56.6782H336.949C337.151 55.4688 337.805 52.9994 338.511 50.7821L341.584 40.7031C341.836 39.9976 341.836 39.8968 342.189 38.7377C342.289 39.1913 342.491 39.8464 342.743 40.7031L345.816 50.7821C346.723 53.705 347.126 55.2168 347.378 56.6782H355.942Z" fill="#104373"/>
<path d="M258.816 66.2772C258.816 78.4036 263.678 90.0334 272.331 98.6081C280.985 107.183 292.721 112 304.959 112C317.196 112 328.933 107.183 337.586 98.6081C346.24 90.0334 351.101 78.4036 351.101 66.2772L333.655 66.2772C333.655 73.8186 330.631 81.0512 325.25 86.3838C319.868 91.7164 312.569 94.7122 304.959 94.7122C297.348 94.7122 290.049 91.7164 284.668 86.3838C279.286 81.0512 276.263 73.8186 276.263 66.2772L258.816 66.2772Z" fill="#104373"/>
<path fill-rule="evenodd" clip-rule="evenodd" d="M56.1446 44.5145L37.5401 11.653C35.6286 8.27675 30.779 8.23584 28.8108 11.5794L9.65417 44.1222C7.68597 47.4657 10.0753 51.686 13.955 51.7188L51.7162 52.0375C55.5959 52.0702 58.0561 47.8908 56.1446 44.5145ZM45.2154 7.30764C39.9588 -1.97713 26.6224 -2.08971 21.2099 7.10501L2.05326 39.6478C-3.3593 48.8425 3.21144 60.4485 13.8806 60.5385L51.6417 60.8573C62.3109 60.9473 69.0766 49.4539 63.82 40.1691L45.2154 7.30764Z" fill="#104373"/>
</svg>
